<svg width="100" height="100" viewBox="0 0 100 100" fill="none" xmlns="http://www.w3.org/2000/svg">
<rect width="100" height="100" rx="15" fill="#FEDC60"/>
<path d="M63.92 31.88C59.2 31.88 55.36 33.16 52.4 35.72C49.44 38.2 47.96 41.32 47.96 45.08V71.96C47.96 75.16 46.76 77.48 44.36 78.92C41.96 80.36 38.2 81.08 33.08 81.08V30.44C33.08 26.76 34.24 23.92 36.56 21.92C38.96 19.92 42.56 18.92 47.36 18.92V26C46.16 27.36 45.2 28.68 44.48 29.96L45.2 30.44C50.24 22.76 56.56 18.92 64.16 18.92C67.6 18.92 70.2 19.84 71.96 21.68C73.72 23.44 74.6 25.68 74.6 28.4C74.6 30.48 74.04 32.24 72.92 33.68C70.76 32.48 67.76 31.88 63.92 31.88Z" fill="black"/>
</svg>
