<svg width="119" height="30" viewBox="0 0 119 30" fill="none" xmlns="http://www.w3.org/2000/svg">
<path d="M10.64 12.96C9.06667 12.96 7.78667 13.3867 6.8 14.24C5.81333 15.0667 5.32 16.1067 5.32 17.36V26.32C5.32 27.3867 4.92 28.16 4.12 28.64C3.32 29.12 2.06667 29.36 0.36 29.36V12.48C0.36 11.2533 0.746667 10.3067 1.52 9.64C2.32 8.97333 3.52 8.64 5.12 8.64V11C4.72 11.4533 4.4 11.8933 4.16 12.32L4.4 12.48C6.08 9.92 8.18667 8.64 10.72 8.64C11.8667 8.64 12.7333 8.94667 13.32 9.56C13.9067 10.1467 14.2 10.8933 14.2 11.8C14.2 12.4933 14.0133 13.08 13.64 13.56C12.92 13.16 11.92 12.96 10.64 12.96ZM23.3684 29.36C21.6351 29.36 20.0618 29.0533 18.6484 28.44C17.2618 27.8 16.1684 26.92 15.3684 25.8C14.5684 24.68 14.1684 23.4133 14.1684 22V16.36C14.1684 14.92 14.5551 13.6133 15.3284 12.44C16.1284 11.2667 17.2218 10.3467 18.6084 9.68C19.9951 8.98667 21.5818 8.64 23.3684 8.64C25.1551 8.64 26.7418 8.98667 28.1284 9.68C29.5418 10.3467 30.6351 11.2667 31.4084 12.44C32.2084 13.6133 32.6084 14.92 32.6084 16.36V22C32.6084 23.4133 32.1951 24.68 31.3684 25.8C30.5684 26.92 29.4618 27.8 28.0484 28.44C26.6618 29.0533 25.1018 29.36 23.3684 29.36ZM23.3684 25.08C24.7018 25.08 25.7418 24.7733 26.4884 24.16C27.2618 23.5467 27.6484 22.72 27.6484 21.68V16.6C27.6484 15.5067 27.2618 14.6267 26.4884 13.96C25.7418 13.2667 24.7018 12.92 23.3684 12.92C22.0618 12.92 21.0218 13.2667 20.2484 13.96C19.4751 14.6267 19.0884 15.5067 19.0884 16.6V21.68C19.0884 22.72 19.4751 23.5467 20.2484 24.16C21.0218 24.7733 22.0618 25.08 23.3684 25.08ZM43.9153 29.36C42.182 29.36 40.6086 29.0533 39.1953 28.44C37.8086 27.8 36.7153 26.92 35.9153 25.8C35.1153 24.68 34.7153 23.4133 34.7153 22V16.36C34.7153 14.92 35.102 13.6133 35.8753 12.44C36.6753 11.2667 37.7686 10.3467 39.1553 9.68C40.542 8.98667 42.1286 8.64 43.9153 8.64C45.702 8.64 47.2886 8.98667 48.6753 9.68C50.0886 10.3467 51.182 11.2667 51.9553 12.44C52.7553 13.6133 53.1553 14.92 53.1553 16.36V22C53.1553 23.4133 52.742 24.68 51.9153 25.8C51.1153 26.92 50.0086 27.8 48.5953 28.44C47.2086 29.0533 45.6486 29.36 43.9153 29.36ZM43.9153 25.08C45.2486 25.08 46.2886 24.7733 47.0353 24.16C47.8086 23.5467 48.1953 22.72 48.1953 21.68V16.6C48.1953 15.5067 47.8086 14.6267 47.0353 13.96C46.2886 13.2667 45.2486 12.92 43.9153 12.92C42.6086 12.92 41.5686 13.2667 40.7953 13.96C40.022 14.6267 39.6353 15.5067 39.6353 16.6V21.68C39.6353 22.72 40.022 23.5467 40.7953 24.16C41.5686 24.7733 42.6086 25.08 43.9153 25.08ZM57.2028 12.72H54.0028C54.0028 11.44 54.1895 10.5067 54.5628 9.92C54.9361 9.30667 55.5095 9 56.2828 9H57.2028V7.36C57.2028 5.44 57.7628 3.84 58.8828 2.56C60.0295 1.28 61.7095 0.639998 63.9228 0.639998C65.3895 0.639998 66.5095 0.959998 67.2828 1.6C68.0828 2.21333 68.4828 2.92 68.4828 3.72C68.4828 4.09333 68.4028 4.46667 68.2428 4.84C68.1095 5.18667 67.9095 5.48 67.6428 5.72C66.7095 5.21333 65.7361 4.96 64.7228 4.96C63.8161 4.96 63.1628 5.17333 62.7628 5.6C62.3628 6 62.1628 6.65333 62.1628 7.56V9H67.3628C67.3628 10.3333 67.1095 11.2933 66.6028 11.88C66.0961 12.44 65.2695 12.72 64.1228 12.72H62.1628V26.32C62.1628 27.3867 61.7495 28.16 60.9228 28.64C60.1228 29.12 58.8828 29.36 57.2028 29.36V12.72ZM72.4447 29.36C71.5647 29.36 70.818 29.08 70.2047 28.52C69.618 27.9333 69.3247 27.2 69.3247 26.32C69.3247 25.44 69.618 24.7067 70.2047 24.12C70.818 23.5067 71.5647 23.2 72.4447 23.2C73.298 23.2 74.0314 23.5067 74.6447 24.12C75.2847 24.7067 75.6047 25.44 75.6047 26.32C75.6047 27.1733 75.2847 27.8933 74.6447 28.48C74.0314 29.0667 73.298 29.36 72.4447 29.36ZM97.5016 27.92C97.2616 28.3733 96.9149 28.7333 96.4616 29C96.0082 29.24 95.4882 29.36 94.9016 29.36C94.3949 29.36 93.9416 29.24 93.5416 29C93.1416 28.7867 92.7549 28.4267 92.3816 27.92L87.1016 20.12L84.3816 22.64V26.32C84.3816 27.3867 83.9682 28.16 83.1416 28.64C82.3416 29.12 81.1149 29.36 79.4616 29.36V4.48C79.4616 1.92 81.1282 0.639998 84.4616 0.639998V17.16L93.6216 8.64C94.9549 9.68 95.6216 10.5333 95.6216 11.2C95.6216 11.6267 95.5016 12 95.2616 12.32C95.0482 12.64 94.7016 13.0133 94.2216 13.44L90.0216 17.36L97.5016 27.92ZM102.258 29C101.698 29 101.245 28.8 100.898 28.4C100.578 27.9733 100.418 27.4933 100.418 26.96C100.418 26.48 100.552 26.0933 100.818 25.8L113.018 11.64L112.778 11.44L111.618 12.72H103.938C103.005 12.72 102.285 12.3733 101.778 11.68C101.298 10.9867 101.058 10.0933 101.058 9H116.578C117.138 9 117.592 9.18667 117.938 9.56C118.285 9.93333 118.458 10.3733 118.458 10.88C118.458 11.36 118.298 11.8 117.978 12.2L105.818 26.32L106.058 26.56L107.218 25.28H115.618C116.552 25.28 117.258 25.6267 117.738 26.32C118.245 27.0133 118.498 27.9067 118.498 29H102.258Z" fill="black"/>
</svg>
